<?xml version="1.0" encoding="utf-8"?>
<!-- Generator: Adobe Illustrator 26.0.1, SVG Export Plug-In . SVG Version: 6.00 Build 0)  -->
<svg version="1.1" id="Layer_1" xmlns="http://www.w3.org/2000/svg" xmlns:xlink="http://www.w3.org/1999/xlink" x="0px" y="0px"
	 viewBox="0 0 53 51" style="enable-background:new 0 0 53 51;" xml:space="preserve">
<style type="text/css">
	.st0{fill:#FFFFFF;}
</style>
<g>
	<rect x="7.22" y="37.18" class="st0" width="6.56" height="12.04"/>
	<rect x="18.66" y="31.64" class="st0" width="6.56" height="17.58"/>
	<rect x="29.3" y="25.11" class="st0" width="6.56" height="24.11"/>
	<rect x="40.47" y="19.57" class="st0" width="6.56" height="29.65"/>
	<path class="st0" d="M38.43,14.85c0.14-0.72,0.26-1.65,0.51-2.55c0.19-0.7-0.03-1.13-0.54-1.56c-0.66-0.55-1.32-1.12-1.91-1.75
		c-0.96-1.03-0.52-2.35,0.87-2.62c0.81-0.15,1.64-0.27,2.46-0.27c0.82,0,1.22-0.4,1.51-1.09c0.31-0.76,0.64-1.53,1.04-2.25
		c0.69-1.27,2-1.29,2.74-0.05c0.21,0.35,0.44,0.72,0.53,1.12c0.43,1.92,1.77,2.47,3.54,2.45c0.37,0,0.76,0.03,1.11,0.13
		c1.26,0.34,1.64,1.56,0.76,2.52c-0.58,0.64-1.22,1.23-1.87,1.79c-0.58,0.5-0.76,1.06-0.57,1.8c0.2,0.8,0.37,1.61,0.49,2.43
		c0.19,1.32-0.92,2.17-2.14,1.62c-0.75-0.34-1.5-0.72-2.17-1.2c-0.77-0.54-1.42-0.45-2.16,0.04c-0.62,0.42-1.29,0.77-1.97,1.1
		C39.4,17.11,38.39,16.44,38.43,14.85z"/>
	<path class="st0" d="M10.71,19.2c0-2.07,0.01-4.14-0.01-6.21c0-0.41,0.11-0.74,0.38-1.06c1.42-1.69,2.27-3.64,2.59-5.82
		c0.2-1.38,1.13-1.84,2.34-1.15c1.28,0.73,1.8,1.92,1.91,3.32c0.11,1.49-0.15,2.94-0.56,4.37c-0.27,0.93-0.46,0.93,0.67,0.93
		c1.89,0,3.77-0.01,5.66,0c1.94,0.01,2.94,1.69,2.05,3.42c-0.11,0.22-0.16,0.4-0.05,0.63c0.4,0.84,0.29,1.64-0.25,2.38
		c-0.15,0.21-0.19,0.38-0.09,0.62c0.35,0.82,0.17,1.57-0.37,2.24c-0.18,0.22-0.21,0.4-0.14,0.67c0.43,1.7-0.53,2.92-2.29,2.93
		c-3.57,0-7.14,0-10.7,0c-1.08,0-1.14-0.06-1.14-1.16C10.71,23.26,10.71,21.23,10.71,19.2z"/>
	<path class="st0" d="M9.41,19.75c0,1.79,0,3.57,0,5.36c0,0.88-0.43,1.33-1.32,1.34c-1.7,0.02-3.41,0.01-5.11,0
		c-0.88-0.01-1.49-0.58-1.5-1.46c-0.02-3.49-0.02-6.98,0-10.46c0-0.88,0.61-1.45,1.5-1.46c1.7-0.01,3.41-0.02,5.11,0
		c0.89,0.01,1.32,0.46,1.32,1.33C9.41,16.18,9.41,17.97,9.41,19.75z M4.42,16.51c0.57,0,0.91-0.26,0.88-0.71
		c-0.03-0.55-0.43-0.65-0.86-0.67c-0.56-0.03-0.91,0.24-0.92,0.68C3.52,16.25,3.85,16.51,4.42,16.51z"/>
</g>
</svg>
