<?xml version="1.0" encoding="utf-8"?>
<!-- Generator: Adobe Illustrator 26.0.1, SVG Export Plug-In . SVG Version: 6.00 Build 0)  -->
<svg version="1.1" id="Layer_1" xmlns="http://www.w3.org/2000/svg" xmlns:xlink="http://www.w3.org/1999/xlink" x="0px" y="0px"
	 viewBox="0 0 53 51" style="enable-background:new 0 0 53 51;" xml:space="preserve">
<style type="text/css">
	.st0{fill:#FFFFFF;}
</style>
<g>
	<path class="st0" d="M9.39,25.39c3.74,0,7.07-0.02,10.41,0.01c1.84,0.02,3.45-0.33,4.58-2.42c-1.1-0.05-2.07-0.16-3.02-0.13
		c-3.59,0.13-6.01-1.49-7.52-4.71c-0.3-0.63-0.93-1.25-1.57-1.56c-1.81-0.87-3.07-2.16-3.92-3.97c-0.29-0.63-0.94-1.25-1.58-1.53
		C4,9.88,1.46,6.94,2.43,2.8c0.58,0,1.22,0,1.86,0c4.67,0,9.34,0.13,14.01-0.04c3.91-0.15,7.5,0.33,10.29,3.53
		c0.46-0.43,0.84-0.71,1.12-1.06c3.19-4.05,9.54-3.06,11.76,1.52c0.5,1.03,1.04,1.55,2.27,1.59c0.49,0.02,1.35,0.95,1.33,1.43
		c-0.03,0.65-0.67,1.71-1.19,1.8c-1.39,0.25-1.58,0.96-1.77,2.18c-0.41,2.57-1.01,5.12-1.75,7.62c-0.46,1.56,0.69,1.63,1.48,1.89
		c3.56,1.18,6.02,3.52,7.68,6.82c4.1,8.14-2.44,17.35-10.01,18.14c-8.34,0.87-14.42-5.41-14.57-12.52
		c-0.03-1.24-0.33-1.85-1.82-1.61c-1.46,0.24-2.99,0.15-4.48,0.07c-0.62-0.03-1.38-0.24-1.8-0.65c-2.28-2.19-4.49-4.47-6.7-6.74
		C9.91,26.54,9.81,26.18,9.39,25.39z M17.03,28.43c-0.12,0.29-0.24,0.57-0.36,0.86c0.93,0.56,1.88,1.61,2.79,1.58
		c2.35-0.07,4.95,0.73,6.94-1.33c0.04-0.04,0.05-0.11,0.08-0.16c1.82-3.42,4.76-5.36,8.36-6.59c0.93-0.32,1.87-1.23,2.34-2.12
		c1.84-3.49,2.08-7.32,1.79-11.18c-0.2-2.58-3.07-4.21-5.44-3.17c-2.18,0.96-2.57,2.8-2.46,4.9c0.05,0.97-0.21,1.65-1.34,1.67
		c-1,0.01-2,0.03-2.2-1.27c-0.59-3.81-3.97-5.9-7.66-5.77c-3.83,0.13-7.66,0-11.49,0.06C7.67,5.91,6.99,6.26,6.3,6.46
		c0.68,0.57,1.31,1.25,2.07,1.66c0.48,0.25,1.17,0.12,1.77,0.12c2.45,0.01,4.91,0.03,7.36-0.01c1.15-0.02,1.99,0.13,1.99,1.6
		c0.01,1.4-0.58,1.95-1.94,1.89c-1.37-0.05-2.75-0.03-4.13,0.01c-0.53,0.02-1.05,0.19-1.58,0.3c-0.04,0.26-0.07,0.52-0.11,0.78
		c1.11,0.36,2.21,0.9,3.35,1.03c1.66,0.18,3.35,0.08,5.02,0.05c1.28-0.03,2.28,0.17,2.27,1.79c0,1.56-1,1.66-2.18,1.64
		c-0.92-0.01-1.84,0.08-3.06,0.14c1.06,1.76,2.45,2.23,3.94,2.33c1.73,0.11,3.47,0.1,5.2,0.06c1.55-0.03,2.01,0.74,1.81,2.14
		c-0.56,3.88-3.4,6.37-7.37,6.43C19.5,28.44,18.27,28.43,17.03,28.43z M37.65,45.18c5.35,0.1,9.63-4.09,9.76-9.55
		c0.13-5.36-4.11-9.78-9.46-9.85c-5.36-0.08-9.61,4.08-9.75,9.55C28.07,40.69,32.27,45.08,37.65,45.18z"/>
	<path class="st0" d="M36.8,9.45c-0.22,1.51-0.68,2.11-1.84,2.09c-1.08-0.02-1.46-0.62-1.47-1.61c0-1.07,0.42-1.84,1.57-1.59
		C35.7,8.47,36.22,9.07,36.8,9.45z"/>
	<path class="st0" d="M36.3,32.62c0-1.01,0-2.03,0-3.04c-0.01-1.02,0.44-1.51,1.51-1.51c1.1,0,1.44,0.54,1.51,1.53
		c0.09,1.27-0.16,2.94,0.54,3.69c0.62,0.67,2.39,0.16,3.55,0.52c0.65,0.2,1.39,1.02,1.56,1.69c0.25,1.02-0.46,1.63-1.58,1.62
		c-1.79-0.01-3.58-0.04-5.36,0.02c-1.21,0.04-1.78-0.45-1.74-1.67C36.31,34.53,36.29,33.57,36.3,32.62
		C36.3,32.62,36.3,32.62,36.3,32.62z"/>
</g>
</svg>
