<?xml version="1.0" encoding="utf-8"?>
<!-- Generator: Adobe Illustrator 26.0.1, SVG Export Plug-In . SVG Version: 6.00 Build 0)  -->
<svg version="1.1" id="Layer_1" xmlns="http://www.w3.org/2000/svg" xmlns:xlink="http://www.w3.org/1999/xlink" x="0px" y="0px"
	 viewBox="0 0 53 51" style="enable-background:new 0 0 53 51;" xml:space="preserve">
<style type="text/css">
	.st0{fill:#FFFFFF;}
</style>
<g>
	<path class="st0" d="M36.5,3.24c6.55-0.51,12.48,5.88,12.31,12.32c-0.19,6.85-5.52,12.5-12.37,12.44
		c-6.38-0.06-12.24-5.04-12.31-12.49C24.06,8.77,29.93,2.82,36.5,3.24z M43.77,11.76c-0.12-0.15-0.24-0.3-0.36-0.44
		c-0.58,0.37-1.22,0.67-1.75,1.12c-2.36,1.99-4.68,4.03-7.04,6.03c-1.74,1.48-2.01,1.44-3.66-0.05c-0.44-0.4-1.01-0.65-1.52-0.98
		c-0.14,0.17-0.29,0.34-0.43,0.51c0.54,0.63,1.05,1.29,1.64,1.88c1.79,1.81,2.14,1.81,4.04,0.16c2.56-2.22,5.12-4.42,7.66-6.66
		C42.87,12.87,43.3,12.29,43.77,11.76z"/>
	<path class="st0" d="M4.21,28.15c0-5.81,0.03-11.62-0.02-17.42C4.18,9.34,4.24,8.4,6.08,8.42c1.85,0.02,2.14,0.95,2.13,2.43
		C8.19,18.01,8.2,25.16,8.2,32.32c0,2.99-0.01,5.98,0,8.98c0.01,2.35,0.17,2.52,2.48,2.52c10.21,0,20.41,0,30.62,0.01
		c1.92,0,2.21,0.38,2.15,2.27c-0.04,1.19-0.57,1.7-1.74,1.68c-1.64-0.02-3.28,0.01-4.93,0.01c-9.97,0-19.94,0-29.92,0
		c-2.65,0-2.65-0.01-2.65-2.57C4.21,39.53,4.21,33.84,4.21,28.15z"/>
	<path class="st0" d="M17.55,31.3c0,3.05-0.06,6.1,0.03,9.15c0.05,1.58-0.66,2.11-2.1,2.04c-1.35-0.07-3.05,0.39-3.06-1.84
		c-0.02-6.22-0.04-12.44,0.02-18.66c0.02-1.75,0.66-2.04,2.92-2.06c1.58-0.01,2.23,0.65,2.21,2.21
		C17.51,25.19,17.55,28.24,17.55,31.3z"/>
	<path class="st0" d="M26.71,34.95c0,1.88-0.04,3.75,0.01,5.63c0.06,2.1-1.35,1.9-2.74,1.93c-1.35,0.02-2.23-0.19-2.19-1.89
		c0.09-3.92,0.05-7.85,0.01-11.78c-0.01-1.21,0.3-1.97,1.67-1.8c1.24,0.16,3.09-0.73,3.19,1.59c0.09,2.11,0.02,4.22,0.02,6.33
		C26.68,34.95,26.7,34.95,26.71,34.95z"/>
	<path class="st0" d="M35.9,38.38c0,0.47,0,0.94,0,1.41c-0.01,2.56-0.16,2.72-2.67,2.7c-2.28-0.02-2.47-0.21-2.48-2.54
		c-0.01-1.35,0.01-2.7,0.01-4.05c-0.01-1.99,1.36-1.99,2.79-2.01c1.42-0.02,2.46,0.3,2.36,2.03C35.86,36.73,35.9,37.56,35.9,38.38z"
		/>
</g>
</svg>
