<?xml version="1.0" encoding="utf-8"?>
<!-- Generator: Adobe Illustrator 26.0.1, SVG Export Plug-In . SVG Version: 6.00 Build 0)  -->
<svg version="1.1" id="Layer_1" xmlns="http://www.w3.org/2000/svg" xmlns:xlink="http://www.w3.org/1999/xlink" x="0px" y="0px"
	 viewBox="0 0 70 70" style="enable-background:new 0 0 70 70;" xml:space="preserve">
<style type="text/css">
	.st0{fill:#FFFFFF;}
</style>
<g>
	<path class="st0" d="M37.61,4.09c0.97,0,1.57,0.37,2.25,1.08c0.73,0.77,1.84,1.25,2.86,1.66c1.36,0.54,2.72,0.98,3.65,2.22
		c1.41,1.86,1.62,4.55,0.14,6.29c-1.94,2.28-2.97,5.02-4.29,7.62c-0.73,1.45-1.78,2.73-2.66,4.1c-0.22,0.35-0.33,0.77-0.49,1.16
		c0.39,0.15,0.81,0.45,1.18,0.41c0.72-0.09,1.43-0.33,2.12-0.58c2.55-0.91,3.88-0.3,4.82,2.23c1.69,4.55,3.35,9.12,5.1,13.66
		c0.92,2.39,0.71,4.22-2.73,5.77c-0.03,0.01-0.06,0.02-0.09,0.04c-0.93,0.36-2.14,0.44-2.1,1.86c0.05,1.69,1.24,3.21,2.7,3.48
		c0.56,0.1,1.15,0.1,1.73,0.12c1.85,0.06,3.55,1.83,3.31,3.67c-0.07,0.56-0.61,1.3-1.12,1.51c-4.39,1.83-8.82,3.58-13.26,5.3
		c-1.4,0.54-2.17,0.1-2.73-1.3c-0.73-1.81-0.53-2.99,0.74-4.23c1.79-1.76,2.09-3.44,0.99-5.47c-1.06-1.94-3.26-3.03-5.41-2.37
		c-2.21,0.68-4.33,1.61-6.47,2.49c-6.57,2.69-13.14,5.41-19.71,8.11c-0.53,0.22-1.08,0.42-1.64,0.58c-0.65,0.18-1.24,0.08-1.52-0.63
		c-0.28-0.73,0.11-1.17,0.74-1.44c2.21-0.96,4.43-1.92,6.65-2.84c2.56-1.06,5.13-2.07,7.7-3.1c2.2-0.88,2.49-1.63,1.63-3.85
		c-0.59-1.52-1.08-3.09-1.52-4.67c-0.46-1.64-1.31-2.21-2.94-1.59c-3.1,1.18-6.15,2.46-9.22,3.7c-0.42,0.17-0.84,0.33-1.26,0.48
		c-0.78,0.27-1.4,0.11-1.72-0.73c-0.29-0.74-0.02-1.27,0.88-1.63c2.36-0.94,4.74-1.83,7.09-2.78c4.44-1.78,8.85-3.66,13.33-5.35
		c1.96-0.74,2.58-2.39,3.32-4c0.33-0.72,0.51-1.53,0.63-2.31c0.12-0.79-0.33-1.33-1.11-1.42c-5.13-0.6-9.84-2.75-14.77-4.07
		c-3-0.8-4.21-4.07-2.8-7.06c0.26-0.55,0.62-1.06,0.98-1.54c0.76-1.02,1.16-2.11,1.07-3.41c-0.12-1.78,0.51-2.69,2.18-3.32
		c6.42-2.41,12.83-4.82,19.26-7.19C35.91,4.41,36.77,4.29,37.61,4.09z M41.38,16.98c-0.04-0.34-0.05-0.87-0.19-1.36
		c-0.63-2.22-1.29-4.44-1.95-6.66c-0.59-1.96-1.46-2.42-3.4-1.74c-2.28,0.79-4.55,1.58-6.81,2.43c-3.52,1.32-7.03,2.64-10.51,4.06
		c-1.91,0.78-2.27,1.63-1.59,3.59c0.58,1.67,1.2,3.33,1.99,4.9c2.15,4.26,5.63,6.5,10.44,6.54c1.47,0.01,2.7,0.43,3.56,1.73
		c0.43,0.65,1.1,0.68,1.82,0.46c0.69-0.21,1.19-0.64,1.17-1.36c-0.07-1.84,0.89-3.14,2.04-4.42C40,22.9,41.17,20.22,41.38,16.98z
		 M39.97,50.44c1.13-0.2,2.33-0.21,3.37-0.64c2.05-0.83,4.01-1.88,6-2.86c0.25-0.12,0.49-0.34,0.64-0.57c0.39-0.61,0-1.35-0.73-1.37
		c-0.41-0.01-0.81,0.1-1.22,0.16c-0.57,0.08-1.15,0.26-1.71,0.22c-0.34-0.02-0.86-0.32-0.93-0.59c-0.09-0.34,0.07-0.93,0.34-1.14
		c0.54-0.43,1.22-0.69,1.85-1c0.62-0.3,1.28-0.53,0.98-1.47c-0.34-1.06-0.83-1.42-1.83-1.24c-0.76,0.14-1.51,0.32-2.27,0.43
		c-0.53,0.08-1.03,0.02-1.25-0.62c-0.22-0.64,0.12-0.98,0.6-1.25c0.59-0.33,1.19-0.65,1.8-0.92c1.05-0.47,1.32-0.88,1.06-1.73
		c-0.27-0.87-0.84-1.14-1.91-0.97c-0.92,0.14-1.85,0.3-2.77,0.31c-0.31,0-0.82-0.36-0.89-0.64c-0.07-0.27,0.22-0.8,0.5-0.97
		c0.76-0.46,1.61-0.79,2.42-1.17c0.52-0.24,1.16-0.34,1.02-1.16c-0.13-0.77-0.76-1.35-1.55-1.3c-0.44,0.03-0.89,0.17-1.29,0.35
		c-2.75,1.18-5.49,2.37-8.23,3.58c-1.51,0.66-2.31,1.87-2.3,3.49c0.01,1.08,0.16,2.18,0.43,3.23c0.39,1.49,1.05,2.91,1.4,4.4
		C34.52,49.36,35.48,50.17,39.97,50.44z M25.99,52.82c2.17-0.64,4.09-1.27,5.68-2.55c0.36-0.29,0.54-1.16,0.4-1.64
		c-0.63-2.12-1.38-4.2-2.13-6.28c-0.42-1.15-1.22-1.47-2.4-1.08c-1.13,0.38-1.51,1.06-1.18,2.24c0.39,1.36,0.84,2.7,1.22,4.06
		c0.13,0.45,0.2,0.96,0.14,1.42c-0.05,0.32-0.33,0.78-0.6,0.86c-0.33,0.1-0.83-0.04-1.13-0.26c-0.28-0.2-0.45-0.62-0.58-0.97
		c-0.54-1.48-1.06-2.96-1.58-4.45c-0.17-0.49-0.3-1.05-1.02-0.87c-0.7,0.17-0.84,0.73-0.66,1.29c0.79,2.4,1.59,4.8,2.51,7.15
		C24.84,52.2,25.54,52.47,25.99,52.82z M51.44,58.31c-0.25-1.05-0.98-1.11-1.63-1.1c-3.17,0.08-5.93,1.26-8.33,3.29
		c-0.33,0.28-0.58,0.69-0.75,1.1c-0.09,0.23-0.03,0.66,0.14,0.83c0.16,0.17,0.59,0.25,0.83,0.16c2.99-1.16,5.97-2.34,8.93-3.56
		C50.96,58.9,51.2,58.53,51.44,58.31z M13.52,22.03c0.08,0.05,0.16,0.1,0.24,0.15c-0.1,1.53,0.49,2.67,1.93,3.22
		c0.45,0.17,0.99,0.08,1.49,0.12c-0.02-0.51,0.08-1.07-0.08-1.54c-0.26-0.78-0.61-1.55-1.08-2.23c-0.31-0.44-0.94-1.04-1.31-0.97
		C14.25,20.87,13.92,21.58,13.52,22.03z M43.96,55.7c1-0.01,1.55-0.48,1.55-1.3c0-1.14-0.64-1.85-1.65-1.82
		c-1.13,0.04-1.79,0.53-1.77,1.35C42.11,54.92,42.95,55.71,43.96,55.7z M43.12,9.63c-0.72,0-0.99,0.58-0.69,1.38
		c0.29,0.77,0.51,1.57,0.8,2.34c0.1,0.27,0.33,0.67,0.5,0.68c0.33,0.01,0.8-0.13,0.98-0.38c0.25-0.33,0.37-0.82,0.41-1.25
		C45.26,11.2,44.09,9.63,43.12,9.63z"/>
	<path class="st0" d="M11.16,43.14c-0.53-0.5-0.91-0.77-1.15-1.13c-0.17-0.24-0.17-0.61-0.23-0.93c-0.3-1.74-1.28-2.91-2.91-3.55
		c-0.45-0.17-0.99-0.25-1.32-0.55c-0.34-0.31-0.62-0.85-0.63-1.29c0-0.32,0.43-0.72,0.76-0.96c0.41-0.3,0.92-0.45,1.38-0.69
		c1.62-0.84,2.66-2.11,2.89-3.96c0.09-0.73,0.45-1.1,1.19-1.1c0.7,0,1.12,0.36,1.19,1.01c0.24,2.27,1.69,3.52,3.59,4.42
		c0.09,0.04,0.17,0.09,0.26,0.13c0.55,0.26,1.18,0.47,1.13,1.26c-0.05,0.81-0.55,1.27-1.29,1.51c-1.41,0.45-2.57,1.21-3.13,2.65
		c-0.23,0.6-0.29,1.27-0.57,1.84C12.1,42.25,11.65,42.59,11.16,43.14z M11.13,34.57c-0.78,0-1.32,0.49-1.33,1.22
		c0,0.82,0.56,1.38,1.4,1.38c0.72,0,1.28-0.61,1.28-1.4C12.48,35.06,11.93,34.57,11.13,34.57z"/>
	<path class="st0" d="M61.59,15.73c-0.53,0.54-0.82,1.09-1.24,1.23c-2.29,0.75-3.45,2.44-4.18,4.6c-0.16,0.47-0.62,1.07-1.04,1.16
		c-0.71,0.16-1.02-0.55-1.18-1.15c-0.6-2.23-1.94-3.79-4.09-4.7c-0.36-0.15-0.74-0.71-0.74-1.09c0-0.37,0.4-0.92,0.75-1.06
		c2.11-0.85,3.34-2.44,4.06-4.52c0.09-0.27,0.18-0.56,0.33-0.8c0.45-0.76,1.23-0.78,1.68-0.02c0.23,0.38,0.35,0.83,0.51,1.25
		c0.72,1.85,1.82,3.3,3.82,3.95C60.7,14.72,61.02,15.22,61.59,15.73z M56.23,15.86c0.01-0.86-0.46-1.27-1.17-1.35
		c-0.63-0.08-1.26,0.65-1.24,1.33c0.03,0.83,0.49,1.22,1.29,1.23C55.94,17.06,56.18,16.5,56.23,15.86z"/>
	<path class="st0" d="M59.02,28.58c0.5,0.55,0.95,0.83,1.06,1.21c0.68,2.31,2.17,3.88,4.22,5.04c1.07,0.6,1.08,1.79-0.05,2.23
		c-2.27,0.88-3.46,2.53-4.09,4.78c-0.12,0.41-0.77,0.92-1.16,0.91c-0.37-0.01-0.92-0.59-1.05-1.02c-0.64-2.18-1.84-3.77-4.03-4.61
		c-0.42-0.16-0.96-0.78-0.94-1.16c0.02-0.45,0.5-1.09,0.93-1.28c2.17-0.95,3.52-2.52,4.1-4.81C58.13,29.47,58.57,29.15,59.02,28.58z
		 M60.49,35.65c0-0.61-0.75-1.25-1.47-1.25c-0.59,0-1.5,0.88-1.48,1.43c0.02,0.63,0.86,1.39,1.52,1.38
		C59.75,37.21,60.49,36.39,60.49,35.65z"/>
	<path class="st0" d="M38.38,17.12c0,1.94-0.26,3.79-1.58,5.34c-0.36,0.42-0.73,0.76-1.31,0.37c-0.54-0.37-0.85-0.87-0.51-1.48
		c1.56-2.8,1.26-5.63,0.19-8.48c-0.21-0.57-0.4-1.15-0.57-1.74c-0.18-0.66,0.08-1.15,0.69-1.41c0.61-0.25,1.05,0,1.36,0.55
		C37.88,12.39,38.31,14.71,38.38,17.12z"/>
</g>
</svg>
