<?xml version="1.0" encoding="utf-8"?>
<!-- Generator: Adobe Illustrator 26.0.1, SVG Export Plug-In . SVG Version: 6.00 Build 0)  -->
<svg version="1.1" id="Layer_1" xmlns="http://www.w3.org/2000/svg" xmlns:xlink="http://www.w3.org/1999/xlink" x="0px" y="0px"
	 viewBox="0 0 70 70" style="enable-background:new 0 0 70 70;" xml:space="preserve">
<style type="text/css">
	.st0{fill:#FFFFFF;}
</style>
<g>
	<path class="st0" d="M26.51,5.48c1.35,0,2.7-0.05,4.05,0.01c1.58,0.07,2.06,0.63,2.01,2.21c-0.01,0.42-0.06,0.83-0.09,1.24
		c-0.11,1.4-0.24,1.55-1.6,2c-0.5,0.17-0.92,0.45-0.91,1.03c0.02,0.7,0.55,0.96,1.13,1.1c2.77,0.69,5.35,1.81,7.73,3.39
		c0.5,0.33,0.96,0.71,1.47,1.03c0.73,0.46,1.25,0.2,1.33-0.66c0.03-0.36-0.02-0.72-0.03-1.09c-0.03-0.81,0.51-1.26,1.3-1
		c0.31,0.1,0.61,0.29,0.86,0.51c0.56,0.5,1.09,1.04,1.62,1.58c0.47,0.48,0.72,1.05,0.42,1.7c-0.32,0.68-0.95,0.5-1.51,0.41
		c-0.48-0.08-1.04-0.16-1.2,0.38c-0.11,0.37,0.11,0.85,0.23,1.27c0.05,0.16,0.24,0.27,0.33,0.42c0.97,1.68,1.97,3.34,2.86,5.06
		c0.45,0.86-0.09,1.67-0.94,1.5c-0.37-0.08-0.8-0.46-0.98-0.81c-1.18-2.27-2.47-4.46-4.3-6.27c-10.78-10.66-27.15-5.24-31.5,7.11
		C4.82,38.86,12.2,51.1,23.97,52.81c1.4,0.2,2.84,0.07,4.27,0.08c0.62,0.01,1.25-0.04,1.87-0.02c0.63,0.01,1.04,0.32,1.07,0.99
		c0.03,0.67-0.42,0.92-0.97,1.01c-4.37,0.74-8.6,0.26-12.6-1.7c-6.03-2.95-10.08-7.58-11.59-14.21c-1.41-6.22-0.45-12.01,3.38-17.22
		c0.31-0.42,0.6-0.85,0.87-1.29c0.28-0.45,0.15-0.8-0.36-0.97c-0.49-0.16-0.99-0.3-1.48-0.45c-0.72-0.22-1.02-0.75-0.69-1.44
		c0.6-1.25,1.54-2.23,2.82-2.79c0.9-0.4,1.52,0.19,1.37,1.17c-0.07,0.51-0.39,1.12,0.23,1.49c0.66,0.39,1.24,0.07,1.77-0.36
		c2.28-1.83,4.83-3.1,7.7-3.71c0.47-0.1,0.99-0.24,1.36-0.53c0.28-0.22,0.52-0.7,0.5-1.04c-0.02-0.27-0.43-0.62-0.74-0.74
		c-1.49-0.6-1.9-1.2-1.74-2.77c0.05-0.54,0.12-1.08,0.18-1.63c0.11-0.98,0.34-1.2,1.33-1.21c1.32-0.01,2.65,0,3.98,0
		C26.51,5.47,26.51,5.47,26.51,5.48z M26.8,7.47C26.8,7.47,26.8,7.47,26.8,7.47c-0.78,0-1.56-0.05-2.32,0.03
		c-0.27,0.03-0.51,0.35-0.77,0.54c0.23,0.27,0.42,0.6,0.7,0.78c0.18,0.12,0.5,0.02,0.76,0.02c0.44,0,0.87,0.01,1.31,0.01
		c0.82,0.01,1.63,0.03,2.45,0.02c0.53-0.01,0.88-0.37,0.81-0.84c-0.03-0.23-0.53-0.51-0.84-0.55C28.2,7.41,27.5,7.47,26.8,7.47z"/>
	<path class="st0" d="M47.18,64.54c-1.54-0.11-2.93-0.49-4.01-1.88c-1.18-1.51-2.96-2.21-4.8-1.72c-2.45,0.65-5.99-2.8-5.48-5.2
		c0.47-2.19-0.41-3.9-2.22-5.25c-1.5-1.12-1.61-2.83-1.44-4.53c0.12-1.23,0.65-2.24,1.72-3c1.77-1.26,2.35-3.04,1.89-5.14
		c-0.22-0.98-0.02-1.78,0.72-2.47c0.59-0.55,1.12-1.15,1.7-1.71c0.93-0.9,2.01-1.21,3.29-0.9c1.96,0.49,3.5-0.02,4.54-1.75
		c1.39-2.32,4.86-2.48,6.57-1.35c0.4,0.27,0.78,0.61,1.08,0.99c1.3,1.68,2.99,2.46,5.09,2.22c2.15-0.24,5.04,1.87,5.36,4
		c0.03,0.22-0.01,0.46-0.08,0.67c-0.67,1.84,0.19,4.32,1.88,5.37c1.06,0.66,1.59,1.61,1.62,2.84c0.01,0.57-0.05,1.14-0.03,1.71
		c0.03,1.44-0.35,2.56-1.7,3.39c-1.55,0.96-2.01,2.59-1.81,4.36c0.36,3.18-2.5,6.04-5.69,5.69c-1.8-0.2-3.39,0.33-4.44,1.86
		C50.01,64.09,48.73,64.47,47.18,64.54z M38.25,58.28c2.55-0.04,4.73,0.93,7.04,3.03c0.47,0.42,1.04,0.77,1.63,1
		c0.51,0.2,1.13,0.16,1.41-0.47c0.54-1.23,1.58-1.79,2.74-2.25c0.98-0.39,1.9-0.93,2.89-1.3c0.53-0.19,1.21-0.34,1.7-0.16
		c1.14,0.43,1.91-0.04,2.66-0.74c0.35-0.33,0.47-0.71,0.19-1.19c-0.52-0.92-0.39-1.83,0.06-2.75c0.53-1.09,0.93-2.25,1.53-3.31
		c0.36-0.65,0.88-1.31,1.5-1.69c1.23-0.76,1.34-1.91,0.25-2.87c-0.7-0.62-1.29-1.41-1.76-2.22c-0.5-0.87-0.72-1.9-1.2-2.78
		c-0.55-1-0.82-1.94-0.55-3.11c0.32-1.36-0.75-2.25-2.15-2.13c-0.83,0.07-1.73,0-2.52-0.25c-1.18-0.38-2.27-1.02-3.43-1.45
		c-0.74-0.27-1.22-0.66-1.57-1.37c-0.63-1.28-2.13-1.42-3.1-0.37c-0.35,0.38-0.68,0.79-1.07,1.13c-1.91,1.72-4.22,2.22-6.71,2.19
		c-1.7-0.02-2.36,0.66-2.39,2.35c0,0.21,0,0.42,0,0.62c-0.04,2.84-0.91,5.33-3.26,7.09c-0.95,0.71-0.99,2.77,0.22,3.32
		c0.97,0.45,1.61,1.3,1.97,2.32c0.38,1.1,0.73,2.21,1.04,3.33c0.13,0.48,0.23,0.99,0.19,1.48c-0.13,1.62,0.51,2.86,2.38,2.52
		C38.04,58.26,38.15,58.28,38.25,58.28z"/>
	<path class="st0" d="M23.4,39.99c-0.5-0.29-0.95-0.45-1.28-0.75c-1.29-1.17-2.54-2.37-3.8-3.58c-0.2-0.19-0.37-0.45-0.47-0.7
		c-0.2-0.52-0.05-0.98,0.39-1.31c0.46-0.34,0.81-0.08,1.17,0.23c0.81,0.69,1.61,1.4,2.46,2.03c1.37,1.01,2.05,1,3.32-0.11
		c1.34-1.18,2.61-2.45,3.92-3.68c1.19-1.12,2.38-2.24,3.59-3.35c0.23-0.21,0.48-0.49,0.75-0.53c0.4-0.05,0.9-0.02,1.19,0.2
		c0.18,0.14,0.16,0.73,0.04,1.04c-0.14,0.37-0.45,0.69-0.75,0.98c-3.02,2.89-6.04,5.78-9.09,8.64
		C24.45,39.46,23.91,39.68,23.4,39.99z"/>
	<path class="st0" d="M29.14,19.99c-0.36-0.03-0.72-0.03-1.07-0.11c-0.61-0.14-0.78-0.62-0.76-1.18c0.02-0.54,0.36-0.79,0.85-0.81
		c0.48-0.02,0.98-0.04,1.46,0.04c0.74,0.12,1.19,0.72,1.09,1.35c-0.12,0.76-0.72,0.68-1.26,0.68c-0.1,0-0.21,0-0.31,0
		C29.14,19.97,29.14,19.98,29.14,19.99z"/>
	<path class="st0" d="M19.12,19.93c0.59,0,0.91,0.4,0.82,1.03c-0.11,0.76-1.55,1.87-2.31,1.75c-0.55-0.09-0.79-0.44-0.73-1
		C17.02,20.73,18,19.93,19.12,19.93z"/>
	<path class="st0" d="M12.86,39.27c0.5,0.33,0.9,0.52,1.19,0.81c0.24,0.25,0.33,0.63,0.51,0.95c0.27,0.5,0.39,1.02-0.14,1.38
		c-0.54,0.37-1.22,0.22-1.53-0.26c-0.39-0.6-0.6-1.34-0.75-2.05C12.1,39.9,12.56,39.6,12.86,39.27z"/>
	<path class="st0" d="M33.83,19.65c0.87,0.01,1.55,0.35,1.94,1.16c0.29,0.59,0.04,1.08-0.59,1.23c-0.79,0.19-2-0.38-2.37-1.11
		C32.39,20.1,32.76,19.64,33.83,19.65z"/>
	<path class="st0" d="M23.13,20.21c-0.95,0.01-1.31-0.45-1.11-1.16c0.25-0.9,1.91-1.47,2.68-0.92c0.62,0.45,0.54,1.49-0.19,1.78
		C24.01,20.11,23.45,20.15,23.13,20.21z"/>
	<path class="st0" d="M13.05,25.89c0-1.1,0.91-2.12,1.88-2.11c0.66,0.01,1.05,0.41,0.78,0.99c-0.3,0.66-0.71,1.32-1.24,1.8
		C13.94,27.05,13.05,26.56,13.05,25.89z"/>
	<path class="st0" d="M12.86,36.09c-0.01,0.98-0.25,1.3-0.92,1.33c-0.77,0.03-1.12-0.3-1.19-1.19c-0.03-0.33-0.01-0.67,0-1.01
		c0.01-0.52,0.18-0.91,0.79-0.95c0.62-0.04,1.08,0.2,1.23,0.82C12.83,35.45,12.83,35.82,12.86,36.09z"/>
	<path class="st0" d="M10.7,30.85c0.25-0.94,0.37-1.71,1.24-2.06c0.53-0.21,0.99-0.09,1.01,0.54c0.02,0.71-0.01,1.46-0.24,2.11
		c-0.09,0.27-0.83,0.56-1.13,0.45C11.21,31.76,10.98,31.22,10.7,30.85z"/>
	<path class="st0" d="M39.77,25.05c-0.01,0.8-0.53,1.13-1.23,0.75c-0.8-0.44-1.26-1.13-1.33-2.05c-0.05-0.65,0.32-0.95,0.96-0.82
		C39.08,23.12,39.78,24.04,39.77,25.05z"/>
	<path class="st0" d="M17.52,46.78c-1.02,0.02-1.91-0.81-1.96-1.81c-0.03-0.67,0.38-1.03,1.01-0.89c0.92,0.2,1.48,0.82,1.8,1.65
		C18.6,46.31,18.19,46.77,17.52,46.78z"/>
	<path class="st0" d="M20.99,47.06c0.62,0.16,1.11,0.22,1.56,0.41c0.62,0.26,0.84,0.88,0.63,1.48c-0.22,0.66-0.77,0.59-1.22,0.44
		c-0.57-0.19-1.13-0.47-1.59-0.85c-0.2-0.16-0.26-0.71-0.14-0.98C20.35,47.32,20.77,47.2,20.99,47.06z"/>
	<path class="st0" d="M41.91,29.06c-0.18,0.44,0.05,1.23-0.88,1.23c-0.59,0-1.08-0.76-1.04-1.58c0.02-0.52,0.54-1,1.03-0.96
		C41.58,27.8,41.96,28.32,41.91,29.06z"/>
	<path class="st0" d="M26.55,48.15c0.79-0.02,1.13,0.38,1.14,0.88c0.02,0.56-0.44,0.88-1,0.83c-0.48-0.04-1.1,0.01-1.12-0.75
		C25.55,48.53,26.02,48.15,26.55,48.15z"/>
	<path class="st0" d="M47.01,56.98c-5.46,0.06-10.24-4.52-10.33-9.89c-0.09-5.68,4.66-10.53,10.37-10.58
		c5.41-0.05,10.07,4.67,10.12,10.27C57.22,52.44,52.76,56.92,47.01,56.98z M47.23,38.75c-4.37-0.15-8.12,3.41-8.29,7.87
		c-0.17,4.38,3.3,8.03,7.81,8.22c4.46,0.18,8.07-3.24,8.26-7.84C55.18,42.63,51.67,38.91,47.23,38.75z"/>
</g>
</svg>
