<?xml version="1.0" encoding="utf-8"?>
<!-- Generator: Adobe Illustrator 26.0.1, SVG Export Plug-In . SVG Version: 6.00 Build 0)  -->
<svg version="1.1" id="Layer_1" xmlns="http://www.w3.org/2000/svg" xmlns:xlink="http://www.w3.org/1999/xlink" x="0px" y="0px"
	 viewBox="0 0 70 70" style="enable-background:new 0 0 70 70;" xml:space="preserve">
<style type="text/css">
	.st0{fill:#FFFFFF;}
</style>
<g>
	<path class="st0" d="M34.96,64.4c-5.83,0-11.66,0-17.5,0c-2.87,0-3.24-0.32-3.27-3.19c-0.05-4.12-0.02-8.24-0.02-12.36
		c0-2-0.41-2.46-2.39-2.74c-2.18-0.31-2.52-1.06-1.31-2.91c0.95-1.46,1.92-2.91,2.86-4.37c1.89-2.95,4.52-4.19,8-3.52
		c1.21,0.23,1.56-0.18,1.22-1.38c-0.04-0.14-0.08-0.29-0.13-0.43c-1.24-3.93-3.71-5.44-7.82-4.92c-1.24,0.15-2.52,0.05-3.77-0.05
		c-0.33-0.03-0.88-0.51-0.87-0.78c0.01-0.42,0.34-0.89,0.67-1.21c0.19-0.19,0.62-0.19,0.94-0.2c2.1-0.06,4.21-0.1,6.31-0.15
		c0.18,0,0.37,0.04,0.54-0.02c0.47-0.15,1.18-0.01,1.16-0.82c-0.01-0.7-0.58-0.74-1.09-0.82c-0.59-0.1-1.19-0.19-1.77-0.32
		c-0.67-0.15-1.06-0.57-1.04-1.27c0.01-0.72,0.39-1.21,1.11-1.31c0.74-0.1,1.49-0.11,2.24-0.17c0.56-0.05,1.12-0.11,1.11-0.88
		c-0.01-0.81-0.57-0.88-1.18-0.89c-1.2-0.02-2.4-0.05-3.61-0.08c-0.27-0.01-0.54-0.02-0.81-0.07c-0.65-0.13-1.09-0.45-1.1-1.2
		c0-0.76,0.49-1.01,1.1-1.04c1.44-0.07,2.89-0.15,4.32-0.1c2.69,0.11,4.68-1.15,6.27-3.13c0.54-0.67,0.83-1.58,1.09-2.42
		c0.36-1.17,0.79-1.47,1.88-0.98c0.94,0.41,1.84,0.44,2.79,0.07c0.56-0.22,1.14-0.39,1.73-0.5c0.54-0.1,0.91-0.41,0.79-0.89
		c-0.1-0.39-0.47-0.76-0.81-1.01c-0.24-0.18-0.64-0.13-0.95-0.23c-0.65-0.21-0.99-0.64-0.89-1.36c0.09-0.7,0.49-1.11,1.19-1.11
		c2.1-0.02,4.21-0.03,6.31,0.02c0.68,0.01,1.18,0.35,1.21,1.17c0.03,0.79-0.35,1.17-1.05,1.32c-0.35,0.08-0.76,0.03-1.05,0.21
		c-0.34,0.2-0.77,0.57-0.79,0.89c-0.02,0.33,0.34,0.91,0.64,1c1.14,0.35,2.32,0.63,3.5,0.76c0.57,0.06,1.21-0.21,1.79-0.43
		c0.77-0.28,1.44-0.01,1.44,0.76c-0.01,1.33,0.65,2.26,1.55,3.12c2.39,2.26,3.91,5,4.44,8.26c0.49,3.02,0.08,5.93-1.23,8.7
		c-0.41,0.87-0.87,1.71-1.32,2.56c-0.49,0.93-0.33,1.24,0.7,1.28c0.35,0.01,0.7,0.02,1.05-0.03c3.09-0.5,5.48,0.65,7.26,3.14
		c1.14,1.58,2.22,3.21,3.27,4.85c1.09,1.7,0.57,2.72-1.43,2.91c-1.9,0.18-2.4,0.71-2.4,2.63c-0.01,4.21,0,8.42,0,12.63
		c0,2.44-0.64,3.06-3.11,3.06C46.8,64.4,40.88,64.4,34.96,64.4C34.96,64.4,34.96,64.4,34.96,64.4z M35.14,35.46
		c0-0.05,0.01-0.09,0.01-0.14c1.32,0,2.65,0.02,3.97-0.01c2.78-0.06,5.17-0.91,6.53-3.54c1.3-2.5,1.95-5.15,1.62-8
		c-0.6-5.21-4.56-9.52-9.78-10.75c-5.47-1.29-10.91,2.26-13.02,5.63c-2.77,4.43-1.86,10.33,0.46,13.96
		c0.86,1.34,2.12,2.19,3.67,2.37C30.76,35.24,32.95,35.31,35.14,35.46z M44.74,57.15C44.74,57.15,44.74,57.15,44.74,57.15
		c0.66,0.01,1.32,0.01,1.98,0.01c1.5,0,3.01,0.07,4.5,0c1.56-0.08,2.09-0.68,2.11-2.2c0.02-2.13,0.02-4.26,0.03-6.4
		c0.01-1.88-0.49-2.39-2.41-2.38c-2.73,0-5.47,0.02-8.2,0.01c-2.08-0.01-3.74-0.77-4.65-2.77c-0.08-0.19-0.21-0.41-0.37-0.49
		c-0.34-0.15-0.73-0.33-1.07-0.27c-0.15,0.03-0.31,0.58-0.31,0.89c-0.02,3.72-0.02,7.45-0.01,11.17c0,1.8,0.63,2.42,2.45,2.43
		C40.78,57.16,42.76,57.15,44.74,57.15z M32.67,42.15c-0.11,0.27-0.22,0.54-0.34,0.81c-0.78,1.7-2.04,2.81-3.91,3.1
		c-0.82,0.13-1.67,0.15-2.51,0.16c-2.34,0.01-4.68-0.03-7.03-0.03c-1.5,0-1.93,0.45-1.94,1.94c-0.01,2.25,0,4.5,0.01,6.76
		c0,1.82,0.45,2.27,2.3,2.27c3.99,0,7.99,0,11.98-0.01c0.33,0,0.66-0.03,0.99-0.06c0.87-0.08,1.26-0.55,1.26-1.43
		c-0.01-4.17-0.01-8.35,0.01-12.52C33.49,42.54,33.29,42.23,32.67,42.15z M48.67,43.27c0,0.01,0,0.02,0,0.03
		c1.92,0,3.85,0.02,5.77-0.01c1.09-0.02,1.43-0.6,0.86-1.53c-0.54-0.89-1.14-1.77-1.82-2.56c-0.77-0.91-1.79-1.39-3.02-1.32
		c-0.93,0.05-1.85,0.15-2.78,0.16c-2.52,0.01-5.05-0.03-7.57-0.04c-0.36,0-0.72,0.01-1.08,0.07c-0.61,0.1-0.83,0.44-0.5,1.02
		c0.39,0.67,0.82,1.33,1.18,2.02c0.75,1.45,1.9,2.18,3.54,2.16C45.07,43.25,46.87,43.27,48.67,43.27z M25.88,43.33
		c0.03,0.12,0.05,0.24,0.08,0.36c0.91-0.34,2.02-0.46,2.69-1.07c1.13-1.03,2.02-2.34,2.93-3.59c0.35-0.48,0.11-0.93-0.56-0.98
		c-0.33-0.03-0.66-0.03-0.99-0.04c-3.33-0.05-6.66-0.08-9.99-0.16c-1.45-0.03-2.67,0.43-3.6,1.52C15.9,40,15.4,40.69,15,41.42
		c-0.71,1.28-0.35,1.89,1.08,1.9C19.34,43.34,22.61,43.33,25.88,43.33z M25.24,61.57c2.31,0,4.63,0,6.94,0
		c0.61,0,1.1-0.18,1.09-0.89c-0.01-0.66-0.45-0.94-1.07-0.98c-0.06,0-0.12-0.01-0.18-0.01c-4.51,0-9.02,0-13.53,0
		c-0.65,0-1.22,0.17-1.26,0.97c-0.04,0.89,0.62,0.91,1.24,0.91C20.73,61.58,22.98,61.57,25.24,61.57z M44.92,61.57
		c0-0.01,0-0.01,0-0.02c2.37,0,4.75,0.02,7.12-0.03c0.31-0.01,0.77-0.34,0.89-0.63c0.21-0.52-0.14-0.92-0.65-1.09
		c-0.25-0.08-0.53-0.09-0.8-0.09c-4.35-0.01-8.71-0.01-13.06,0c-0.32,0-0.73-0.02-0.94,0.16c-0.28,0.23-0.55,0.66-0.53,0.99
		c0.01,0.24,0.47,0.53,0.78,0.65c0.32,0.12,0.71,0.06,1.07,0.06C40.84,61.57,42.88,61.57,44.92,61.57z"/>
	<path class="st0" d="M36.49,22.51c-0.21,0.92-0.29,1.9-0.67,2.76c-0.99,2.25-3.48,1.87-4.77,0.78c-0.69-0.59-0.39-1.79,0.55-1.98
		c1.55-0.31,2.01-1.24,2.03-2.69c0.01-0.52,0.34-1.18,0.75-1.5c0.71-0.57,1.64-0.09,1.82,0.81c0.04,0.21,0.06,0.42,0.08,0.62
		c0.03,0.39,0.05,0.78,0.07,1.17C36.4,22.49,36.44,22.5,36.49,22.51z"/>
	<path class="st0" d="M27.36,22.12c-0.01,0.85-0.34,1.27-1.06,1.32c-0.73,0.05-1.02-0.36-1.01-1.04c0.01-0.62,0.16-1.13,0.95-1.11
		C26.87,21.31,27.31,21.56,27.36,22.12z"/>
	<path class="st0" d="M40.62,18.76c-0.75,0.02-1.12-0.26-1.11-0.89c0.01-0.57,0.16-1.13,0.87-1.13c0.69,0,1.12,0.43,1.17,1.11
		C41.61,18.59,41.06,18.71,40.62,18.76z"/>
	<path class="st0" d="M35.14,16.97c-0.72-0.04-1.17-0.34-1.19-1.03c-0.02-0.75,0.59-0.84,1.13-0.88c0.56-0.04,0.94,0.26,0.95,0.84
		C36.04,16.51,35.76,16.93,35.14,16.97z"/>
	<path class="st0" d="M44.66,22.38c0.01,0.65-0.27,1.07-0.94,1.05c-0.67-0.02-0.82-0.54-0.81-1.08c0.01-0.54,0.17-1.05,0.84-1.04
		C44.43,21.32,44.67,21.75,44.66,22.38z"/>
	<path class="st0" d="M20.65,55.21c-0.94-0.01-1.49-0.5-1.48-1.3c0.02-0.73,0.71-1.35,1.51-1.35c0.77,0,1.5,0.68,1.5,1.38
		C22.17,54.71,21.57,55.22,20.65,55.21z"/>
	<path class="st0" d="M20.69,48.22c0.95,0.02,1.59,0.5,1.55,1.15c-0.04,0.75-0.87,1.43-1.71,1.4c-0.89-0.03-1.38-0.54-1.34-1.43
		C19.22,48.55,19.7,48.2,20.69,48.22z"/>
</g>
</svg>
