<?xml version="1.0" encoding="utf-8"?>
<!-- Generator: Adobe Illustrator 26.0.1, SVG Export Plug-In . SVG Version: 6.00 Build 0)  -->
<svg version="1.1" id="Layer_1" xmlns="http://www.w3.org/2000/svg" xmlns:xlink="http://www.w3.org/1999/xlink" x="0px" y="0px"
	 viewBox="0 0 260 29" style="enable-background:new 0 0 260 29;" xml:space="preserve">
<style type="text/css">
	.st0{fill:#FFFFFF;}
</style>
<g>
	<path class="st0" d="M6.04,11.19c0.11-0.31,0.18-0.64,0.33-0.95c0.27-0.56,0.62-1.04,1.11-1.43c0.63-0.52,1.36-0.83,2.14-1.02
		c0.09-0.02,0.17-0.02,0.26-0.02c3.11,0,6.22,0,9.33-0.01c0.2,0,0.27,0.03,0.27,0.26c-0.01,1.09-0.01,2.19,0,3.28
		c0,0.19-0.05,0.24-0.24,0.24c-2.79-0.01-5.59,0-8.38-0.01c-0.54,0-1.03,0.37-1.03,1.02c0.01,2.9,0,5.79,0,8.69
		c-1.19,0-2.37-0.01-3.56,0.01c-0.21,0-0.23-0.06-0.23-0.24C6.04,17.73,6.04,14.46,6.04,11.19z"/>
	<path class="st0" d="M10.84,21.23c0-1.19,0.01-2.38-0.01-3.57c0-0.21,0.06-0.25,0.26-0.25c1.4,0.01,2.79,0,4.19,0.01
		c0.34,0,0.51-0.13,0.55-0.54c0.02-0.25,0.08-0.56-0.04-0.72c-0.12-0.15-0.45-0.05-0.69-0.05c-1.34,0-2.68-0.01-4.02,0
		c-0.19,0-0.24-0.05-0.24-0.24c0.01-0.92,0-1.83,0.01-2.75c0-0.37,0.23-0.59,0.6-0.59c2.65,0,5.3,0,7.95,0
		c0.17,0,0.23,0.03,0.23,0.22c-0.01,1.68,0.02,3.36-0.02,5.04c-0.02,0.8-0.32,1.53-0.86,2.16c-0.53,0.6-1.18,0.99-1.94,1.23
		c-0.02,0.01-0.03,0.03-0.05,0.04C14.78,21.23,12.81,21.23,10.84,21.23z"/>
	<path class="st0" d="M32.41,16.1c0,0.75,0,1.5,0,2.24c0,0.12-0.03,0.19-0.14,0.27c-0.84,0.56-1.71,1.06-2.71,1.29
		c-0.57,0.13-1.14,0.1-1.72,0.04c-0.78-0.08-1.53-0.29-2.21-0.68c-1.43-0.82-2.42-1.98-2.72-3.64c-0.24-1.29-0.12-2.55,0.47-3.73
		c0.35-0.72,0.84-1.35,1.47-1.88c0.69-0.59,1.47-0.95,2.35-1.11c0.57-0.1,1.15-0.1,1.72,0c0.76,0.12,1.5,0.34,2.18,0.71
		c0.35,0.19,0.68,0.41,0.97,0.69c0.09,0.08,0.1,0.15,0.02,0.24c-0.28,0.31-0.56,0.61-0.84,0.92c-0.06,0.07-0.11,0.04-0.16-0.01
		c-0.6-0.51-1.3-0.81-2.07-0.95c-1.33-0.23-2.54-0.01-3.46,1.05c-0.56,0.65-0.93,1.4-1.04,2.27c-0.09,0.71-0.09,1.41,0.16,2.09
		c0.26,0.7,0.7,1.28,1.3,1.73c0.89,0.67,1.92,0.9,3.01,0.79c0.57-0.06,1.07-0.36,1.53-0.71c0.24-0.18,0.33-0.37,0.31-0.66
		c-0.03-0.54-0.01-1.08,0-1.62c0-0.18-0.04-0.25-0.23-0.24c-0.94,0.01-1.89,0-2.84,0.01c-0.24,0-0.25-0.07-0.18-0.25
		c0.13-0.37,0.26-0.74,0.37-1.12c0.04-0.14,0.1-0.18,0.23-0.18c1.36,0,2.71,0.01,4.07,0c0.17,0,0.18,0.07,0.18,0.2
		C32.41,14.6,32.41,15.35,32.41,16.1z"/>
	<path class="st0" d="M81.32,12.46c0.79-1.26,3.2-1.49,3.94,0.17c0.42-0.62,0.98-1.04,1.73-1.12c0.84-0.1,1.67-0.02,2.33,0.59
		c0.46,0.43,0.67,1,0.71,1.61c0.13,1.91,0.02,3.82,0.06,5.74c0,0.14-0.02,0.19-0.18,0.2c-0.39,0.04-0.78,0.12-1.17,0.18
		c-0.19,0.03-0.21-0.06-0.2-0.22c0-1.79,0.01-3.57,0-5.36c0-0.46-0.12-0.92-0.58-1.15c-0.64-0.33-1.49-0.23-1.92,0.5
		c-0.19,0.33-0.28,0.68-0.27,1.07c0.01,1.58,0,3.15,0.01,4.73c0,0.16-0.02,0.23-0.21,0.24c-0.37,0.04-0.73,0.12-1.09,0.21
		c-0.2,0.05-0.25,0.01-0.25-0.19c0.01-1.76,0.01-3.52,0-5.29c0-0.35-0.09-0.69-0.28-0.99c-0.26-0.41-0.84-0.51-1.25-0.45
		c-0.81,0.13-1.13,0.84-1.18,1.47c-0.12,1.65-0.02,3.31-0.05,4.96c0,0.18-0.02,0.26-0.23,0.29c-0.41,0.05-0.81,0.14-1.21,0.22
		c-0.1,0.02-0.18-0.01-0.16-0.14c0.01-0.05,0-0.1,0-0.14c0-2.5,0-5.01-0.01-7.51c0-0.21,0.07-0.3,0.26-0.32
		c0.36-0.04,0.72-0.1,1.08-0.18c0.14-0.03,0.12,0.06,0.12,0.14C81.32,11.97,81.32,12.22,81.32,12.46z"/>
	<path class="st0" d="M59.55,12.51c0-1.12,0-2.19,0-3.26c0-0.17,0.03-0.22,0.22-0.24c0.39-0.03,0.78-0.11,1.17-0.18
		c0.1-0.02,0.18-0.01,0.16,0.13c-0.01,0.06,0,0.11,0,0.17c0,3.4,0,6.79,0,10.19c0,0.34,0,0.33-0.35,0.38
		c-0.31,0.04-0.61,0.09-0.92,0.14c-0.15,0.02-0.26,0.01-0.25-0.2c0.02-0.34,0.01-0.68,0.01-1.06c-0.28,0.35-0.62,0.57-0.97,0.78
		c-0.34,0.2-0.71,0.31-1.09,0.38c-0.62,0.11-1.25,0.08-1.84-0.13c-1.49-0.53-2.39-1.59-2.69-3.14c-0.2-1.03-0.07-2.02,0.43-2.94
		c0.6-1.11,1.5-1.87,2.77-2.07c1.06-0.16,2.1-0.02,2.98,0.68C59.32,12.22,59.41,12.36,59.55,12.51z M59.71,15.5
		c0.01-0.31-0.12-0.8-0.4-1.23c-0.72-1.08-1.65-1.56-2.92-1.27c-1.36,0.3-1.89,1.5-1.91,2.55c-0.01,0.39,0.07,0.8,0.23,1.18
		c0.26,0.62,0.67,1.1,1.29,1.37c0.81,0.36,1.61,0.26,2.35-0.17C59.19,17.43,59.71,16.72,59.71,15.5z"/>
	<path class="st0" d="M52.04,15.61c0.08,2.31-1.87,4.28-4.25,4.26c-2.21-0.02-4.23-1.9-4.14-4.35c0.08-2.15,1.75-4.22,4.29-4.14
		C50.22,11.46,52.08,13.19,52.04,15.61z M50.44,15.67c0.08-1.46-1.16-2.73-2.63-2.74c-1.43-0.01-2.47,1.3-2.56,2.5
		c-0.12,1.68,1.27,2.79,2.43,2.88C49.27,18.43,50.56,16.89,50.44,15.67z"/>
	<path class="st0" d="M33.91,15.62c-0.03-1.36,0.55-2.47,1.58-3.35c0.57-0.49,1.24-0.75,2-0.84c0.86-0.1,1.69,0.02,2.46,0.37
		c0.78,0.35,1.36,0.93,1.79,1.67c0.43,0.74,0.6,1.55,0.55,2.4c-0.05,0.91-0.36,1.73-0.95,2.45c-0.53,0.64-1.16,1.11-1.95,1.35
		c-1.05,0.32-2.12,0.32-3.1-0.2c-1.25-0.66-2.13-1.64-2.34-3.1C33.92,16.12,33.93,15.88,33.91,15.62z M38.07,18.29
		c1.36,0.1,2.61-1.26,2.63-2.54c0.03-1.59-1.18-2.8-2.64-2.81c-1.41-0.01-2.58,1.27-2.59,2.69C35.45,17.07,36.73,18.37,38.07,18.29z
		"/>
	<path class="st0" d="M63.14,19.85c0-0.08,0-0.15,0-0.22c0-3.44,0-6.87-0.01-10.31c0-0.22,0.06-0.26,0.27-0.26
		c1.7,0.01,3.39,0.01,5.09,0c0.15,0,0.22,0.03,0.25,0.19c0.07,0.39,0.17,0.77,0.26,1.15c0.04,0.19-0.1,0.16-0.2,0.16
		c-1.21,0-2.42,0-3.63,0c-0.37,0-0.37,0-0.37,0.36c0,0.73,0.01,1.46-0.01,2.2c0,0.21,0.06,0.25,0.26,0.25
		c0.94-0.01,1.89,0,2.84-0.01c0.17,0,0.22,0.05,0.21,0.21c-0.01,0.37-0.01,0.74,0,1.11c0.01,0.18-0.04,0.23-0.22,0.23
		c-0.92-0.01-1.84,0-2.76-0.01c-0.24,0-0.32,0.04-0.32,0.31c0.02,1.34,0.01,2.69,0.01,4.03c0,0.41,0,0.4-0.4,0.45
		C63.98,19.74,63.57,19.8,63.14,19.85z"/>
	<path class="st0" d="M94.3,19.74c-0.92,0-1.64-0.28-2.29-0.81c-0.17-0.13-0.28-0.3-0.43-0.44c-0.09-0.09-0.11-0.18,0.02-0.28
		c0.28-0.21,0.54-0.44,0.79-0.69c0.11-0.11,0.17-0.18,0.32,0.01c0.55,0.71,1.5,0.91,2.2,0.56c0.38-0.19,0.49-0.54,0.5-0.91
		c0.01-0.35-0.22-0.61-0.55-0.73c-0.5-0.18-1.01-0.32-1.51-0.48c-0.55-0.18-1.07-0.42-1.4-0.93c-0.33-0.51-0.41-1.06-0.32-1.66
		c0.17-1.15,0.9-1.77,1.97-2.02c0.93-0.22,1.79,0.02,2.54,0.58c0.64,0.48,0.62,0.5,0.06,1.06c-0.15,0.15-0.28,0.38-0.45,0.42
		c-0.18,0.04-0.31-0.22-0.48-0.33c-0.44-0.29-0.91-0.45-1.44-0.31c-0.39,0.11-0.63,0.4-0.68,0.85c-0.03,0.35,0.2,0.64,0.55,0.8
		c0.51,0.24,1.07,0.27,1.59,0.47c0.81,0.32,1.48,0.8,1.62,1.71c0.21,1.42-0.28,2.54-1.85,3.03C94.78,19.72,94.5,19.75,94.3,19.74z"
		/>
	<path class="st0" d="M74.24,19.86c0-0.08,0-0.15,0-0.22c0-2.53,0-5.05,0-7.58c0-0.2,0.07-0.27,0.26-0.3
		c0.32-0.04,0.64-0.1,0.96-0.17c0.16-0.04,0.2,0,0.19,0.16c-0.01,0.46,0,0.92,0,1.41c0.14-0.2,0.28-0.37,0.38-0.56
		c0.29-0.56,0.78-0.85,1.36-0.97c0.44-0.09,0.9-0.13,1.36-0.11c0.11,0.01,0.16,0.01,0.1,0.14c-0.21,0.46-0.41,0.92-0.6,1.39
		c-0.05,0.12-0.14,0.11-0.23,0.11c-0.32-0.01-0.63,0.02-0.93,0.15c-0.55,0.23-0.83,0.7-1.04,1.21c-0.19,0.46-0.26,0.94-0.25,1.44
		c0.02,1.15,0,2.3,0.01,3.45c0,0.15-0.02,0.21-0.2,0.23C75.14,19.7,74.7,19.79,74.24,19.86z"/>
	<path class="st0" d="M72.11,11.59c0,0.1,0,0.19,0,0.28c0,2.46,0,4.92,0,7.38c0,0.39,0,0.4-0.38,0.44
		c-0.33,0.03-0.66,0.08-0.99,0.14c-0.22,0.05-0.18-0.11-0.18-0.23c0-2.31,0-4.62,0-6.92c0-0.18,0-0.37,0-0.55
		c0-0.32,0-0.31,0.33-0.35C71.28,11.72,71.68,11.65,72.11,11.59z"/>
	<path class="st0" d="M72.39,9.75c0,0.01-0.02,0.03-0.04,0.06c-0.3,0.38-0.6,0.76-0.9,1.13c-0.08,0.11-0.14,0.03-0.19-0.03
		c-0.19-0.24-0.38-0.49-0.57-0.73c-0.01-0.01-0.01-0.03-0.02-0.04c-0.1-0.13-0.25-0.26-0.28-0.4c-0.03-0.16,0.17-0.26,0.26-0.39
		c0.2-0.28,0.42-0.53,0.64-0.8c0.08-0.09,0.12-0.14,0.22,0.01c0.26,0.37,0.55,0.72,0.82,1.07C72.37,9.65,72.4,9.68,72.39,9.75z"/>
</g>
<g>
	<path class="st0" d="M153.15,23.44c0-3.05,0-6.09,0-9.19c0.43,0,0.83,0,1.28,0c0.03,0.19,0.06,0.41,0.1,0.66
		c1.53-1.17,3.23-1.17,4.32-0.02c1.2,1.27,1.24,4.02,0.08,5.34c-1.02,1.16-2.65,1.18-4.29,0c0,1.11,0,2.17,0,3.22
		C154.14,23.44,153.65,23.44,153.15,23.44z M158.45,17.79c-0.16-0.63-0.22-1.08-0.39-1.47c-0.36-0.85-1.03-1.22-1.9-1.12
		c-0.86,0.09-1.39,0.65-1.48,1.43c-0.09,0.76-0.08,1.62,0.18,2.31c0.44,1.17,2,1.44,2.78,0.53
		C158.07,18.97,158.23,18.27,158.45,17.79z"/>
	<path class="st0" d="M177.75,20.8c-0.62,0.03-1.24,0.14-1.85,0.07c-0.65-0.07-0.98-0.56-0.98-1.23c-0.01-1.13-0.02-2.26-0.03-3.38
		c0-0.3,0-0.59,0-0.91c-0.41-0.05-0.73-0.09-1.09-0.14c0-0.32,0-0.61,0-0.97c0.32-0.03,0.66-0.07,1.06-0.11c0-0.62,0-1.22,0-1.89
		c0.48,0,0.9,0,1.43,0c0,0.59,0,1.21,0,1.94c0.55,0,1,0,1.46,0c0,0.33,0,0.66,0,0.99c-0.45,0.04-0.9,0.08-1.42,0.13
		c0,1.08,0,2.08,0,3.09c0,1.38,0.03,1.4,1.42,1.4C177.75,20.14,177.75,20.47,177.75,20.8z"/>
	<path class="st0" d="M103.36,11.78c1.92,0,3.62-0.05,5.31,0.02c0.89,0.04,1.26-0.29,1.5-1.11c0.49-1.69,1.08-3.34,1.66-5.13
		c0.59,1.84,1.18,3.57,1.71,5.33c0.2,0.66,0.52,0.92,1.22,0.9c1.78-0.05,3.56-0.02,5.52-0.02c-1.79,1.3-3.44,2.51-5.12,3.73
		c0.62,2.06,1.22,4.06,1.86,6.19c-1.54-1.12-2.99-2.14-4.41-3.22c-0.6-0.46-1.05-0.44-1.65,0.03c-1.38,1.08-2.83,2.08-4.43,3.24
		c0.45-1.38,0.86-2.58,1.23-3.78c0.25-0.78,0.78-1.66,0.59-2.33c-0.18-0.62-1.13-1.03-1.77-1.5
		C105.59,13.39,104.57,12.66,103.36,11.78z"/>
	<path class="st0" d="M130.03,11.66c0,0.46,0,0.87,0,1.33c-0.96,0-1.89,0-2.91,0c0,2.65,0,5.25,0,7.89c-0.57,0-1.04,0-1.6,0
		c0-2.6,0-5.18,0-7.86c-1.01,0-1.96,0-2.93,0c0-0.51,0-0.91,0-1.36C125.08,11.66,127.51,11.66,130.03,11.66z"/>
	<path class="st0" d="M166.47,17.51c0.01-2.14,1.34-3.5,3.42-3.49c2.04,0.01,3.39,1.43,3.39,3.55c0,2.07-1.41,3.54-3.41,3.56
		C167.81,21.14,166.46,19.7,166.47,17.51z M171.91,17.61c-0.19-0.57-0.27-1.11-0.52-1.54c-0.7-1.2-2.32-1.2-3.07-0.04
		c-0.55,0.86-0.52,2.3,0.05,3.14c0.73,1.05,2.23,1.08,2.92,0.01C171.6,18.72,171.71,18.13,171.91,17.61z"/>
	<path class="st0" d="M139.04,20.15c-0.71,0.76-1.48,1.1-2.43,0.93c-1.23-0.22-1.87-0.85-1.92-2.1c-0.06-1.56-0.01-3.12-0.01-4.74
		c0.48,0,0.93,0,1.48,0c0,1.36-0.01,2.73,0,4.09c0.01,1.12,0.4,1.61,1.29,1.63c0.98,0.02,1.65-0.59,1.67-1.63
		c0.03-1.34,0.01-2.69,0.01-4.09c0.49,0,0.94,0,1.44,0c0,2.2,0,4.41,0,6.65c-0.46,0-0.89,0-1.36,0
		C139.15,20.67,139.1,20.44,139.04,20.15z"/>
	<path class="st0" d="M147.55,16c-0.92,0.03-1.49,0.1-2.08-0.53c-0.32-0.34-1.29-0.22-1.9-0.07c-0.51,0.13-0.44,0.81,0.14,1.04
		c0.68,0.27,1.42,0.39,2.13,0.59c1.29,0.36,1.93,1,1.74,2.01c-0.11,0.56-0.47,1.24-0.93,1.52c-1.27,0.78-2.7,0.83-3.98,0.02
		c-0.51-0.32-0.8-1.01-1.31-1.71c0.98-0.07,1.63-0.36,2.06,0.57c0.32,0.68,2,0.7,2.54,0.16c0.41-0.41,0.29-0.99-0.35-1.24
		c-0.63-0.25-1.32-0.34-1.97-0.55c-0.44-0.14-0.89-0.3-1.25-0.58c-0.78-0.61-0.81-1.79-0.12-2.49c0.97-0.98,3.53-1.03,4.5-0.04
		C147.08,15.02,147.24,15.47,147.55,16z"/>
	<path class="st0" d="M151.98,20.97c-0.37,0-0.66,0-0.96,0c-1.33-0.01-1.77-0.43-1.81-1.77c-0.03-1.01-0.01-2.03-0.01-3.05
		c0-0.27,0-0.54,0-0.82c-0.4-0.04-0.72-0.08-1.08-0.12c0-0.33,0-0.62,0-0.98c0.31-0.03,0.63-0.05,1.06-0.08c0-0.62,0-1.26,0-1.94
		c0.54,0,0.96,0,1.48,0c0,0.63,0,1.25,0,1.92c0.48,0.03,0.87,0.06,1.31,0.09c0,0.31,0,0.6,0,0.96c-0.4,0.04-0.79,0.07-1.28,0.11
		c0,1.3-0.02,2.58,0.01,3.86c0.02,0.86,0.76,0.57,1.27,0.7C151.98,20.19,151.98,20.51,151.98,20.97z"/>
	<path class="st0" d="M131.22,20.83c-0.53,0-0.94,0-1.4,0c0-2.21,0-4.39,0-6.6c0.46,0,0.86,0,1.32,0c0.02,0.31,0.04,0.6,0.06,0.94
		c0.38-0.32,0.7-0.69,1.1-0.89c0.39-0.19,0.86-0.22,1.36-0.33c0,0.56,0,0.96,0,1.35c-1.92,0.25-2.44,0.85-2.45,2.77
		C131.22,18.96,131.22,19.86,131.22,20.83z"/>
	<path class="st0" d="M163.87,11.66c0.49,0,0.89,0,1.34,0c0,3.09,0,6.13,0,9.22c-0.45,0-0.87,0-1.34,0
		C163.87,17.81,163.87,14.77,163.87,11.66z"/>
	<path class="st0" d="M162.37,20.9c-0.49,0-0.89,0-1.34,0c0-2.22,0-4.41,0-6.65c0.44,0,0.86,0,1.34,0
		C162.37,16.44,162.37,18.64,162.37,20.9z"/>
	<path class="st0" d="M162.38,11.67c0,0.43,0,0.83,0,1.29c-0.42,0-0.84,0-1.33,0c0-0.4,0-0.82,0-1.29
		C161.49,11.67,161.91,11.67,162.38,11.67z"/>
</g>
<g>
	<path class="st0" d="M218.01,21.7c-9.41,0-18.81,0-28.22,0c-1.23,0-2.32-0.4-3.19-1.27c-0.63-0.62-0.98-1.41-1.12-2.29
		c-0.05-0.31-0.04-0.62-0.04-0.94c0-1.92,0-3.84,0-5.75c0-1.83,1.11-3.37,2.85-3.92c0.48-0.15,0.97-0.25,1.49-0.2
		c0.22,0.02,0.46-0.03,0.68-0.03c18.56,0,37.12,0,55.67,0c0.69,0,1.38,0.02,2.05,0.18c1.11,0.27,2.12,0.75,3.01,1.49
		c0.62,0.51,1.15,1.09,1.57,1.77c0.56,0.91,0.88,1.91,0.99,2.97c0.18,1.77-0.18,3.42-1.21,4.87c-0.96,1.36-2.25,2.3-3.87,2.78
		c-0.81,0.24-1.63,0.32-2.46,0.32C236.81,21.7,227.41,21.69,218.01,21.7C218.01,21.7,218.01,21.7,218.01,21.7z M225.96,21.1
		c6.85,0,13.69,0,20.54,0c0.86,0,1.69-0.15,2.49-0.47c1.25-0.49,2.26-1.31,3.04-2.41c0.76-1.07,1.13-2.26,1.17-3.56
		c0.03-1.08-0.19-2.1-0.68-3.07c-0.41-0.83-0.98-1.52-1.68-2.11c-0.55-0.47-1.16-0.82-1.82-1.09c-0.56-0.23-1.14-0.39-1.75-0.44
		c-0.78-0.07-1.57-0.05-2.36-0.05c-13.15,0-26.3,0-39.45,0c-0.12,0-0.24,0.01-0.37,0.02c-0.04,0-0.1,0-0.11,0.06
		c-0.01,0.05,0.04,0.07,0.08,0.1c0.37,0.3,0.72,0.61,0.99,1.01c0.4,0.61,0.65,1.28,0.66,2.02c0.01,2.15,0,4.31,0.01,6.46
		c0.01,1.33-0.53,2.39-1.54,3.22c-0.08,0.07-0.23,0.14-0.19,0.25c0.03,0.09,0.18,0.04,0.27,0.04
		C212.16,21.1,219.06,21.1,225.96,21.1z M199.43,10.01c-0.73-0.04-1.41,0.49-1.66,1.18c-0.36,0.98-0.34,1.97-0.05,2.97
		c0.13,0.44,0.42,0.78,0.8,1.02c0.9,0.56,2.17,0.14,2.59-0.84c0.41-0.96,0.41-1.95,0.14-2.93C201,10.52,200.31,10.01,199.43,10.01z
		 M193.66,10.88C193.66,10.88,193.66,10.88,193.66,10.88c0.28,0,0.57,0.01,0.85,0c0.28-0.01,0.41-0.14,0.42-0.38
		c0.01-0.29-0.13-0.43-0.46-0.43c-0.69,0-1.39,0-2.08,0.01c-0.34,0-0.47,0.1-0.51,0.4c-0.09,0.64-0.18,1.28-0.24,1.93
		c-0.04,0.46,0.4,0.73,0.82,0.53c0.1-0.05,0.19-0.1,0.28-0.15c0.45-0.2,1.09-0.07,1.36,0.29c0.21,0.28,0.2,0.8-0.01,1.15
		c-0.16,0.25-0.63,0.41-1.01,0.35c-0.32-0.05-0.55-0.24-0.77-0.46c-0.13-0.14-0.42-0.16-0.57-0.06c-0.15,0.1-0.19,0.33-0.11,0.54
		c0.1,0.23,0.28,0.39,0.48,0.5c0.92,0.49,1.9,0.44,2.62-0.31c0.6-0.61,0.55-1.7-0.03-2.33c-0.52-0.57-1.21-0.63-1.93-0.44
		c-0.21,0.05-0.28,0.01-0.27-0.21c0.01-0.24,0.05-0.47,0.07-0.71c0.01-0.17,0.09-0.23,0.25-0.22
		C193.11,10.88,193.39,10.88,193.66,10.88z M199.08,18.42c-0.09-0.13-0.14-0.21-0.2-0.3c-0.23-0.33-0.4-0.7-0.7-0.99
		c-0.07-0.07-0.14-0.15-0.26-0.11c-0.12,0.05-0.14,0.15-0.14,0.26c0,0.46-0.01,0.92,0.01,1.37c0,0.14-0.02,0.36,0.2,0.35
		c0.2-0.01,0.15-0.21,0.16-0.35c0.01-0.26,0.01-0.52,0.02-0.78c0-0.04,0.01-0.1,0.06-0.11c0.05-0.01,0.08,0.04,0.1,0.08
		c0.12,0.18,0.24,0.35,0.36,0.53c0.12,0.18,0.21,0.39,0.38,0.54c0.08,0.07,0.17,0.13,0.29,0.08c0.11-0.05,0.12-0.15,0.12-0.25
		c0-0.51,0-1.02,0-1.54c0-0.1,0-0.22-0.14-0.22c-0.14,0-0.17,0.11-0.18,0.22c-0.01,0.21,0,0.43-0.01,0.64
		C199.14,18.03,199.18,18.21,199.08,18.42z M191.31,17.99C191.31,17.99,191.31,17.99,191.31,17.99c0,0.26,0,0.52,0,0.78
		c0,0.11,0.05,0.23,0.17,0.23c0.14,0.01,0.16-0.12,0.17-0.23c0.01-0.12,0.01-0.24,0.01-0.37c0-0.15,0.09-0.2,0.23-0.19
		c0.12,0,0.18,0.07,0.23,0.16c0.13,0.19,0.25,0.38,0.39,0.56c0.05,0.06,0.14,0.12,0.22,0.05c0.08-0.08,0.08-0.17,0.01-0.27
		c-0.07-0.08-0.13-0.17-0.2-0.25c-0.15-0.17-0.17-0.29,0.05-0.44c0.21-0.14,0.25-0.38,0.2-0.62c-0.04-0.2-0.17-0.33-0.36-0.38
		c-0.29-0.07-0.59-0.08-0.89-0.05c-0.17,0.02-0.26,0.11-0.25,0.29C191.32,17.52,191.31,17.75,191.31,17.99z M201.67,18.39
		c-0.01-0.17,0.05-0.37-0.19-0.44c-0.16-0.04-0.33-0.03-0.5-0.01c-0.08,0.01-0.12,0.06-0.12,0.14c0,0.07,0.04,0.12,0.1,0.13
		c0.06,0.02,0.12,0.03,0.18,0.03c0.09,0,0.19-0.01,0.2,0.12c0.01,0.12,0.01,0.24-0.13,0.31c-0.37,0.19-0.76,0.05-0.94-0.33
		c-0.18-0.39-0.02-0.86,0.33-1.02c0.27-0.13,0.51-0.04,0.73,0.11c0.1,0.07,0.17,0.06,0.24-0.03c0.07-0.09,0-0.16-0.06-0.21
		c-0.11-0.09-0.23-0.2-0.37-0.22c-0.62-0.1-1.11,0.14-1.23,0.78c-0.12,0.63,0.26,1.21,0.85,1.3
		C201.25,19.14,201.67,18.84,201.67,18.39z M194.93,18.81c-0.01-0.2-0.13-0.36-0.19-0.54c-0.13-0.36-0.28-0.71-0.42-1.06
		c-0.05-0.12-0.14-0.2-0.27-0.21c-0.15-0.01-0.2,0.1-0.24,0.21c-0.21,0.51-0.42,1.03-0.63,1.54c-0.04,0.09-0.04,0.19,0.06,0.24
		c0.12,0.05,0.18-0.03,0.23-0.13c0.05-0.1,0.07-0.22,0.18-0.25c0.25-0.06,0.5-0.04,0.75-0.01c0.17,0.02,0.18,0.19,0.24,0.3
		c0.04,0.08,0.11,0.14,0.2,0.11C194.93,18.98,194.93,18.89,194.93,18.81z M195.62,16.98c-0.08,0.01-0.17,0-0.26,0.03
		c-0.11,0.03-0.31-0.04-0.31,0.14c0.01,0.19,0.2,0.14,0.33,0.14c0.18,0,0.24,0.09,0.24,0.26c0,0.27,0,0.53,0,0.8
		c0,0.16,0,0.32,0.01,0.48c0.01,0.08,0.04,0.17,0.14,0.18c0.11,0,0.17-0.07,0.18-0.17c0.01-0.07,0.02-0.15,0.02-0.23
		c0-0.29,0-0.58,0-0.87c0-0.36,0-0.36,0.35-0.42c0.1-0.02,0.24-0.02,0.23-0.16c0-0.17-0.15-0.17-0.27-0.17
		C196.07,16.98,195.85,16.98,195.62,16.98z M196.85,14.87c0-0.3-0.25-0.55-0.53-0.55c-0.3,0-0.52,0.25-0.52,0.56
		c0.01,0.27,0.25,0.49,0.53,0.5C196.62,15.37,196.85,15.14,196.85,14.87z M197.27,18.02C197.27,18.02,197.26,18.02,197.27,18.02
		c0-0.27,0-0.55-0.01-0.82c0-0.1-0.05-0.18-0.16-0.19c-0.11-0.01-0.15,0.07-0.15,0.16c0,0.53-0.01,1.07-0.01,1.6
		c0,0.11,0.02,0.23,0.16,0.24c0.14,0,0.16-0.12,0.16-0.23C197.27,18.53,197.27,18.28,197.27,18.02z"/>
	<path class="st0" d="M219.6,17.22c0.04-0.42,0.06-0.8,0.11-1.17c0.03-0.25-0.04-0.46-0.2-0.65c-0.27-0.34-0.6-0.63-0.85-0.98
		c-0.26-0.37-0.12-0.77,0.33-0.87c0.39-0.08,0.78-0.16,1.17-0.24c0.19-0.04,0.32-0.13,0.41-0.29c0.19-0.32,0.37-0.65,0.56-0.97
		c0.07-0.11,0.13-0.22,0.21-0.33c0.25-0.34,0.66-0.34,0.9,0c0.18,0.26,0.33,0.53,0.49,0.8c0.11,0.18,0.22,0.37,0.34,0.54
		c0.09,0.13,0.22,0.2,0.38,0.23c0.39,0.08,0.78,0.16,1.17,0.24c0.41,0.09,0.56,0.47,0.34,0.83c-0.18,0.31-0.43,0.56-0.68,0.79
		c-0.41,0.37-0.44,0.81-0.38,1.29c0.03,0.24,0.06,0.49,0.07,0.73c0.02,0.44-0.28,0.67-0.7,0.55c-0.43-0.12-0.82-0.32-1.24-0.48
		c-0.14-0.06-0.27-0.07-0.42-0.02c-0.31,0.1-0.6,0.26-0.91,0.38c-0.12,0.05-0.24,0.1-0.37,0.13
		C219.88,17.85,219.59,17.62,219.6,17.22z"/>
	<path class="st0" d="M227.67,17.04c0.01-0.16,0-0.4,0.06-0.62c0.15-0.58-0.08-1.01-0.47-1.39c-0.18-0.18-0.35-0.37-0.51-0.56
		c-0.35-0.43-0.2-0.82,0.34-0.94c0.37-0.08,0.73-0.16,1.1-0.22c0.21-0.04,0.34-0.14,0.45-0.32c0.24-0.41,0.48-0.81,0.72-1.22
		c0.23-0.39,0.67-0.41,0.93-0.03c0.23,0.32,0.43,0.67,0.61,1.02c0.17,0.32,0.4,0.53,0.79,0.58c0.31,0.04,0.61,0.13,0.92,0.19
		c0.43,0.09,0.61,0.51,0.35,0.87c-0.2,0.28-0.43,0.56-0.68,0.8c-0.39,0.36-0.41,0.78-0.33,1.25c0.04,0.21,0.06,0.42,0.07,0.64
		c0.03,0.53-0.28,0.78-0.78,0.6c-0.33-0.12-0.66-0.25-0.98-0.39c-0.24-0.11-0.48-0.13-0.73-0.03c-0.2,0.09-0.41,0.17-0.61,0.25
		c-0.14,0.06-0.28,0.12-0.43,0.17C227.94,17.88,227.66,17.68,227.67,17.04z"/>
	<path class="st0" d="M239.55,17.76c-0.2,0-0.39-0.08-0.57-0.15c-0.25-0.1-0.5-0.2-0.74-0.3c-0.25-0.11-0.49-0.11-0.75,0.01
		c-0.35,0.15-0.71,0.28-1.07,0.41c-0.38,0.14-0.69-0.04-0.72-0.46c-0.02-0.23,0.02-0.47,0.04-0.71c0.02-0.18,0.04-0.36,0.07-0.55
		c0.03-0.22-0.03-0.4-0.17-0.57c-0.28-0.35-0.62-0.63-0.88-1c-0.28-0.39-0.16-0.78,0.31-0.9c0.38-0.1,0.76-0.17,1.14-0.24
		c0.21-0.04,0.35-0.14,0.45-0.32c0.2-0.34,0.39-0.69,0.58-1.04c0.07-0.12,0.15-0.23,0.25-0.33c0.21-0.2,0.48-0.2,0.7-0.01
		c0.26,0.23,0.39,0.55,0.56,0.83c0.06,0.09,0.09,0.19,0.14,0.29c0.17,0.32,0.37,0.58,0.79,0.61c0.32,0.03,0.62,0.15,0.94,0.2
		c0.56,0.08,0.6,0.65,0.29,0.99c-0.22,0.25-0.43,0.52-0.67,0.75c-0.28,0.26-0.31,0.57-0.27,0.92c0.04,0.35,0.07,0.7,0.08,1.05
		C240.05,17.58,239.86,17.76,239.55,17.76z"/>
	<path class="st0" d="M211.67,15.97c0.08-0.42-0.27-0.63-0.47-0.9c-0.15-0.2-0.34-0.37-0.5-0.56c-0.38-0.43-0.25-0.86,0.3-0.98
		c0.35-0.08,0.7-0.16,1.05-0.23c0.22-0.04,0.38-0.14,0.49-0.34c0.2-0.35,0.4-0.7,0.6-1.05c0.07-0.12,0.15-0.23,0.25-0.32
		c0.21-0.18,0.47-0.17,0.68,0.01c0.26,0.22,0.35,0.55,0.54,0.82c0.04,0.06,0.09,0.13,0.12,0.2c0.18,0.56,0.63,0.73,1.15,0.77
		c0.25,0.02,0.49,0.11,0.74,0.16c0.31,0.07,0.45,0.44,0.31,0.74c-0.06,0.13-0.15,0.24-0.25,0.35c-0.25,0.28-0.5,0.55-0.74,0.84
		c-0.14,0.17-0.14,0.38-0.12,0.59c0.03,0.37,0.07,0.73,0.07,1.1c-0.01,0.52-0.27,0.71-0.76,0.53c-0.37-0.13-0.72-0.29-1.08-0.43
		c-0.22-0.09-0.43-0.08-0.64,0.01c-0.3,0.13-0.61,0.25-0.91,0.37c-0.03,0.01-0.06,0.02-0.09,0.03c-0.57,0.19-0.86-0.03-0.83-0.63
		c0.01-0.18,0.03-0.37,0.04-0.55C211.64,16.34,211.66,16.16,211.67,15.97z"/>
	<path class="st0" d="M243.76,17.12c0.02-0.25,0-0.5,0.06-0.72c0.13-0.53-0.06-0.93-0.43-1.29c-0.18-0.17-0.34-0.37-0.51-0.56
		c-0.05-0.05-0.09-0.11-0.12-0.16c-0.22-0.35-0.09-0.72,0.31-0.82c0.31-0.08,0.62-0.17,0.94-0.2c0.47-0.05,0.72-0.32,0.92-0.71
		c0.15-0.31,0.34-0.62,0.53-0.91c0.23-0.36,0.65-0.36,0.9-0.01c0.26,0.38,0.47,0.78,0.71,1.17c0.13,0.21,0.29,0.36,0.55,0.4
		c0.36,0.06,0.72,0.14,1.07,0.23c0.48,0.11,0.61,0.52,0.31,0.92c-0.09,0.12-0.18,0.23-0.28,0.33c-0.21,0.21-0.39,0.45-0.58,0.67
		c-0.11,0.13-0.16,0.27-0.14,0.44c0.04,0.36,0.07,0.73,0.1,1.09c0.04,0.4-0.07,0.65-0.33,0.76c-0.11,0.05-0.22,0.05-0.33,0.01
		c-0.31-0.12-0.64-0.22-0.93-0.38c-0.43-0.24-0.83-0.17-1.25,0.02c-0.22,0.1-0.43,0.19-0.65,0.28
		C244.05,17.89,243.75,17.69,243.76,17.12z"/>
	<path class="st0" d="M198.42,12.78c-0.01-0.47,0-0.94,0.19-1.39c0.16-0.38,0.45-0.57,0.85-0.59c0.34-0.01,0.62,0.15,0.78,0.46
		c0.31,0.58,0.32,1.2,0.27,1.83c-0.03,0.43-0.11,0.85-0.38,1.2c-0.28,0.37-0.9,0.42-1.24,0.1c-0.32-0.3-0.42-0.7-0.47-1.11
		C198.4,13.12,198.42,12.95,198.42,12.78z"/>
	<path class="st0" d="M192,17.3c0.35,0,0.49,0.09,0.5,0.29c0.01,0.2-0.12,0.3-0.46,0.34c-0.12,0.01-0.26,0.06-0.33-0.07
		c-0.07-0.14-0.06-0.32,0-0.46C191.76,17.26,191.9,17.31,192,17.3z"/>
	<path class="st0" d="M194.05,18.3c-0.33,0-0.38-0.08-0.22-0.38c0.06-0.11,0.08-0.23,0.13-0.34c0.02-0.05,0.04-0.11,0.1-0.11
		c0.07,0,0.07,0.06,0.09,0.11c0.05,0.12,0.09,0.24,0.13,0.36C194.4,18.28,194.38,18.31,194.05,18.3z"/>
</g>
</svg>
